HIERARCHY
ROOT Hips
{
    OFFSET 0.000000 0.000000 0.000000
    CHANNELS 6 Xposition Yposition Zposition Zrotation Xrotation Yrotation
    JOINT Spine
    {
        OFFSET -0.000000 7.236184 0.000000
        CHANNELS 3 Zrotation Xrotation Yrotation
        JOINT Spine1
        {
            OFFSET -0.000000 20.420147 0.000000
            CHANNELS 3 Zrotation Xrotation Yrotation
            JOINT Neck
            {
                OFFSET -0.000000 20.336288 1.848754
                CHANNELS 3 Zrotation Xrotation Yrotation
                JOINT Head
                {
                    OFFSET -0.000000 12.354461 -1.764923
                    CHANNELS 3 Zrotation Xrotation Yrotation
                    End Site
                    {
                        OFFSET -0.000000 22.061537 0.000000
                    }
                }
            }
            JOINT LeftShoulder
            {
                OFFSET 3.573296 18.396038 -0.314103
                CHANNELS 3 Zrotation Xrotation Yrotation
                JOINT LeftArm
                {
                    OFFSET 10.880760 0.000000 0.000000
                    CHANNELS 3 Zrotation Xrotation Yrotation
                    JOINT LeftForeArm
                    {
                        OFFSET 27.185530 0.000000 0.000000
                        CHANNELS 3 Zrotation Xrotation Yrotation
                        JOINT LeftHand
                        {
                            OFFSET 27.825975 0.000000 0.000000
                            CHANNELS 3 Zrotation Xrotation Yrotation
                            End Site
                            {
                                OFFSET 13.236923 0.000000 0.000000
                            }
                        }
                    }
                }
            }
            JOINT RightShoulder
            {
                OFFSET -3.474926 18.396038 -0.314103
                CHANNELS 3 Zrotation Xrotation Yrotation
                JOINT RightArm
                {
                    OFFSET -10.880760 0.000000 0.000000
                    CHANNELS 3 Zrotation Xrotation Yrotation
                    JOINT RightForeArm
                    {
                        OFFSET -27.185530 0.000000 0.000000
                        CHANNELS 3 Zrotation Xrotation Yrotation
                        JOINT RightHand
                        {
                            OFFSET -27.825975 0.000000 0.000000
                            CHANNELS 3 Zrotation Xrotation Yrotation
                            End Site
                            {
                                OFFSET -13.236923 0.000000 0.000000
                            }
                        }
                    }
                }
            }
        }
    }
    JOINT LeftUpLeg
    {
        OFFSET 8.824615 0.000000 0.000000
        CHANNELS 3 Zrotation Xrotation Yrotation
        JOINT LeftLeg
        {
            OFFSET -0.000000 -35.111282 0.000000
            CHANNELS 3 Zrotation Xrotation Yrotation
            JOINT LeftFoot
            {
                OFFSET -0.000000 -42.324711 0.000000
                CHANNELS 3 Zrotation Xrotation Yrotation
                JOINT LeftToeBase
                {
                    OFFSET -0.000000 -5.735999 13.236923
                    CHANNELS 3 Zrotation Xrotation Yrotation
                    End Site
                    {
                        OFFSET -0.000000 0.000000 3.529846
                    }
                }
            }
        }
    }
    JOINT RightUpLeg
    {
        OFFSET -8.824615 0.000000 0.000000
        CHANNELS 3 Zrotation Xrotation Yrotation
        JOINT RightLeg
        {
            OFFSET -0.000000 -35.111282 0.000000
            CHANNELS 3 Zrotation Xrotation Yrotation
            JOINT RightFoot
            {
                OFFSET -0.000000 -42.324711 0.000000
                CHANNELS 3 Zrotation Xrotation Yrotation
                JOINT RightToeBase
                {
                    OFFSET -0.000000 -5.735999 13.236923
                    CHANNELS 3 Zrotation Xrotation Yrotation
                    End Site
                    {
                        OFFSET -0.000000 0.000000 3.529846
                    }
                }
            }
        }
    }
}
MOTION
Frames:    10
Frame Time:    0.008333
-14.638576    85.535248    102.620354    -3.317681    -10.291612    144.995895    0.170751    -5.493577    -3.242004    9.374576    -3.741938    -2.943309    6.986342    11.627318    12.104749    0.498315    -21.678036    12.440631    5.396308    12.525052    0.997541    -49.808735    30.020544    -16.638132    -2.364110    1.744316    -8.865968    16.740524    1.881173    2.175918    5.623235    14.483162    -11.397932    50.848186    32.924873    24.622580    -2.939461    -8.468238    15.524618    -21.291643    -7.499867    -3.069252    3.394832    -10.721018    2.302775    -3.287125    17.251961    27.810570    -5.606716    -12.590388    -14.535212    -0.580016    -2.401271    0.645772    -32.437817    -55.832371    -20.207872    18.955914    57.682762    -8.531531    19.738354    10.094454    -0.509546    1.001646    -4.663380    -1.090594
-14.940335    85.498329    102.664864    -3.247006    -10.129804    144.252884    0.443979    -5.247139    -3.272367    9.316135    -3.510717    -3.006598    7.027853    11.638919    12.519263    0.294541    -21.569178    12.804243    5.369786    12.422521    0.902493    -49.275864    29.364546    -16.966896    -2.216242    1.710201    -8.720051    16.976744    1.853224    2.090478    5.625601    14.499456    -11.278705    50.740360    32.659382    24.611256    -2.865795    -8.436020    15.279449    -21.221710    -7.481323    -3.092523    3.335823    -10.724222    2.496924    -3.442274    17.513220    28.239262    -5.483116    -12.796031    -14.407669    -0.602357    -2.425298    0.670676    -34.379589    -57.550491    -22.497110    20.513506    60.016617    -9.659770    19.505764    9.954328    -0.556506    1.016859    -4.536273    -1.106948
-15.227428    85.453239    102.704620    -3.160504    -9.962675    143.571457    0.718670    -4.992682    -3.299351    9.253940    -3.284735    -3.064786    7.065860    11.655414    12.905725    0.087471    -21.478571    13.138550    5.336695    12.318770    0.804377    -48.804264    28.619991    -17.308683    -2.040789    1.664385    -8.589482    17.276068    1.814805    1.998863    5.627983    14.519116    -11.164364    50.630779    32.393196    24.587713    -2.784332    -8.394172    15.001019    -21.134535    -7.455052    -3.116387    3.292870    -10.746720    2.721110    -3.592275    17.829447    28.581093    -5.367201    -13.008321    -14.278539    -0.621709    -2.452936    0.692258    -36.531940    -59.191086    -24.981205    22.281839    62.304466    -11.004602    19.263968    9.800264    -0.581482    1.025079    -4.411128    -1.115689
-15.501057    85.399872    102.739990    -3.059237    -9.791460    142.945694    0.993299    -4.732478    -3.323034    9.191560    -3.060125    -3.118056    7.110331    11.674320    13.267007    -0.132403    -21.404154    13.442876    5.276184    12.200060    0.695804    -48.393162    27.786854    -17.642254    -1.828484    1.610487    -8.479182    17.636845    1.769004    1.895279    5.655803    14.524343    -11.047421    50.504284    32.122059    24.527752    -2.697821    -8.341790    14.693269    -21.030033    -7.420038    -3.138309    3.265258    -10.788882    2.973836    -3.736995    18.200411    28.844173    -5.255446    -13.228540    -14.148266    -0.638311    -2.483604    0.710785    -38.921684    -60.754314    -27.686073    24.315563    64.542229    -12.620742    19.016382    9.632826    -0.589450    1.027222    -4.287890    -1.117817
-15.765226    85.337303    102.771675    -2.942851    -9.614960    142.363831    1.269516    -4.465515    -3.343719    9.131163    -2.830091    -3.167202    7.177670    11.694233    13.610226    -0.383614    -21.342619    13.717853    5.155084    12.046226    0.563796    -48.034870    26.849228    -17.941126    -1.564348    1.554883    -8.391022    18.060236    1.721310    1.769295    5.747808    14.488955    -10.915095    50.335495    31.839622    24.393734    -2.608596    -8.278769    14.358090    -20.906479    -7.376116    -3.156551    3.252447    -10.851668    3.254232    -3.879040    18.630606    29.042871    -5.145975    -13.459882    -14.017703    -0.652401    -2.517553    0.726521    -41.610661    -62.254967    -30.675783    26.716322    66.748573    -14.603316    18.763138    9.451133    -0.585758    1.024809    -4.166108    -1.114991
-16.016024    85.266144    102.799377    -2.813668    -9.436494    141.832458    1.541412    -4.198433    -3.361104    9.076085    -2.593446    -3.211758    7.247443    11.709907    13.929382    -0.639058    -21.297211    13.966353    5.023467    11.882044    0.426305    -47.731003    25.870386    -18.248724    -1.263061    1.477987    -8.355677    18.534761    1.652243    1.633214    5.848004    14.449785    -10.783356    50.158104    31.553244    24.241150    -2.515056    -8.204676    14.000841    -20.768156    -7.322216    -3.173787    3.254894    -10.933852    3.551209    -4.018305    19.112700    29.184587    -5.040598    -13.698972    -13.889432    -0.664772    -2.554632    0.740350    -44.588058    -63.660847    -33.931881    29.547617    68.874763    -17.020111    18.510479    9.260342    -0.573608    1.020014    -4.049176    -1.109582
-16.252327    85.186935    102.823296    -2.673653    -9.257773    141.351563    1.805549    -3.934475    -3.375312    9.028315    -2.348859    -3.251909    7.321858    11.718032    14.224204    -0.897260    -21.266594    14.188155    4.882781    11.708969    0.284298    -47.478806    24.874685    -18.564333    -0.925692    1.377622    -8.383889    19.048542    1.559273    1.486905    5.957251    14.405248    -10.652418    49.972355    31.265497    24.070244    -2.418972    -8.121159    13.628411    -20.617437    -7.259591    -3.189531    3.272229    -11.033150    3.852838    -4.157360    19.639427    29.279799    -4.938432    -13.944156    -13.761122    -0.676131    -2.594629    0.753056    -47.849998    -64.954308    -37.447849    32.896439    70.890388    -19.958784    18.262524    9.065166    -0.557501    1.014711    -3.939819    -1.103636
-16.475531    85.099533    102.843842    -2.522963    -9.078275    140.916412    2.062021    -3.673721    -3.386782    8.988664    -2.092911    -3.288419    7.403042    11.716038    14.497437    -1.158654    -21.248518    14.385611    4.732583    11.527980    0.136976    -47.271942    23.875681    -18.890646    -0.550230    1.250382    -8.485449    19.594101    1.439157    1.329558    6.077019    14.354041    -10.521565    49.776989    30.975838    23.880367    -2.321173    -8.029192    13.243722    -20.454771    -7.188893    -3.204149    3.304066    -11.147698    4.149534    -4.300594    20.208450    29.337234    -4.835462    -14.196413    -13.625504    -0.687885    -2.638119    0.766211    -51.416164    -66.130295    -41.244514    36.900841    72.782883    -23.554384    18.019901    8.867897    -0.540927    1.010134    -3.837730    -1.098493
-16.686466    85.003891    102.861427    -2.361941    -8.897712    140.524200    2.310319    -3.415709    -3.395962    8.957952    -1.824380    -3.321971    7.492393    11.701683    14.750990    -1.422215    -21.240839    14.560735    4.572966    11.341348    -0.016335    -47.105259    22.887869    -19.229843    -0.135567    1.093287    -8.669463    20.163651    1.289431    1.161147    6.207787    14.295101    -10.390784    49.572464    30.684631    23.671072    -2.222787    -7.929488    12.849336    -20.281153    -7.110615    -3.217582    3.349454    -11.275762    4.431621    -4.451409    20.817011    29.363615    -4.727785    -14.456358    -13.475184    -0.701724    -2.685827    0.781696    -55.292194    -67.179565    -45.328861    41.718742    74.530304    -27.964172    17.783264    8.671035    -0.526303    1.006420    -3.743250    -1.094302
-16.886356    84.899673    102.876373    -2.190362    -8.715107    140.171768    2.550610    -3.158582    -3.403484    8.937245    -1.542970    -3.353253    7.590475    11.674501    14.987059    -1.687600    -21.242081    14.715797    4.403048    11.152170    -0.176656    -46.973324    21.922890    -19.584995    0.320499    0.902760    -8.945445    20.751118    1.107668    0.982061    6.349174    14.228926    -10.259881    49.359249    30.390831    23.442505    -2.124287    -7.822200    12.446393    -20.096601    -7.024803    -3.229820    3.407429    -11.415627    4.690620    -4.613654    21.463617    29.365080    -4.611548    -14.725371    -13.302678    -0.719698    -2.736015    0.801794    -59.482567    -68.093788    -49.706345    47.544785    76.106606    -33.381245    17.552460    8.476439    -0.515373    1.003893    -3.655344    -1.091415
